<svg id="Layer_1" data-name="Layer 1" xmlns="http://www.w3.org/2000/svg" width="102.14" height="143" viewBox="0 0 102.14 143"><defs><style>.cls-1{fill:#34518d;}.cls-2{fill:#e3f4f7;}</style></defs><title>bluepark marker</title><path class="cls-1" d="M126.07,54.57A51.07,51.07,0,1,0,32.54,82.94l33.75,58.53a10.06,10.06,0,0,0,17.42,0l33.75-58.53A50.82,50.82,0,0,0,126.07,54.57Z" transform="translate(-23.93 -3.5)"/><path class="cls-2" d="M100,55.45A4,4,0,0,0,97,54.25L83.08,55l7.64-8.7a4.66,4.66,0,0,0,1-4.37,4,4,0,0,0-1.77-2.52L71.67,28.84a4,4,0,0,0-4.65.47l-8.9,7.94a4,4,0,1,0,5.3,5.94l6.75-6,5.58,3.24L65.9,51.63a20.29,20.29,0,0,0-10.64,5.26L60.4,62A13.08,13.08,0,0,1,78.87,80.5L84,85.64a20.35,20.35,0,0,0,3.46-22.89l5.37-.3-1.31,16a4,4,0,0,0,3.64,4.29H95.5a4,4,0,0,0,4-3.66l1.68-20.57A4,4,0,0,0,100,55.45Z" transform="translate(-23.93 -3.5)"/><path class="cls-2" d="M92.66,38.4A6.66,6.66,0,1,0,86,31.74,6.66,6.66,0,0,0,92.66,38.4Z" transform="translate(-23.93 -3.5)"/><path class="cls-2" d="M69.19,84.79A13.08,13.08,0,0,1,58.37,64.37l-5.2-5.2A20.34,20.34,0,0,0,81.73,87.73l-5.2-5.2A13,13,0,0,1,69.19,84.79Z" transform="translate(-23.93 -3.5)"/></svg>